<?xml version="1.0" encoding="UTF-8" standalone="no"?>
<svg
   xmlns:dc="http://purl.org/dc/elements/1.1/"
   xmlns:cc="http://creativecommons.org/ns#"
   xmlns:rdf="http://www.w3.org/1999/02/22-rdf-syntax-ns#"
   xmlns:svg="http://www.w3.org/2000/svg"
   xmlns="http://www.w3.org/2000/svg"
   xmlns:xlink="http://www.w3.org/1999/xlink"
   xmlns:sodipodi="http://sodipodi.sourceforge.net/DTD/sodipodi-0.dtd"
   xmlns:inkscape="http://www.inkscape.org/namespaces/inkscape"
   inkscape:export-ydpi="96"
   inkscape:export-xdpi="96"
   inkscape:export-filename="C:\Users\owner\DataAnalyticsLab\Case_Study_1\svg\logo.png"
   sodipodi:docname="logo.svg"
   inkscape:version="1.0 (4035a4fb49, 2020-05-01)"
   id="svg8"
   version="1.1"
   viewBox="0 0 210 297"
   height="297mm"
   width="210mm">
  <defs
     id="defs2">
    <linearGradient
       inkscape:collect="always"
       id="linearGradient854">
      <stop
         style="stop-color:#000000;stop-opacity:1;"
         offset="0"
         id="stop850" />
      <stop
         id="stop864"
         offset="0.26243362"
         style="stop-color:#00ffff;stop-opacity:1" />
      <stop
         style="stop-color:#000000;stop-opacity:0;"
         offset="1"
         id="stop852" />
    </linearGradient>
    <rect
       id="rect14"
       height="23.8125"
       width="111.125"
       y="0"
       x="0" />
    <linearGradient
       inkscape:collect="always"
       xlink:href="#linearGradient854"
       id="linearGradient862"
       gradientUnits="userSpaceOnUse"
       x1="6.4946938"
       y1="32.432129"
       x2="64.562468"
       y2="32.432129"
       gradientTransform="matrix(3.530111,0,0,3.530111,-21.297032,-70.073402)" />
  </defs>
  <sodipodi:namedview
     inkscape:window-maximized="1"
     inkscape:window-y="-8"
     inkscape:window-x="-8"
     inkscape:window-height="997"
     inkscape:window-width="1680"
     showgrid="true"
     inkscape:document-rotation="0"
     inkscape:current-layer="layer1"
     inkscape:document-units="mm"
     inkscape:cy="240.34582"
     inkscape:cx="396.49101"
     inkscape:zoom="1.4"
     inkscape:pageshadow="2"
     inkscape:pageopacity="0.0"
     borderopacity="1.0"
     bordercolor="#666666"
     pagecolor="#ffffff"
     id="base"
     inkscape:snap-text-baseline="false">
    <inkscape:grid
       id="grid10"
       type="xygrid" />
  </sodipodi:namedview>
  <metadata
     id="metadata5">
    <rdf:RDF>
      <cc:Work
         rdf:about="">
        <dc:format>image/svg+xml</dc:format>
        <dc:type
           rdf:resource="http://purl.org/dc/dcmitype/StillImage" />
        <dc:title />
      </cc:Work>
    </rdf:RDF>
  </metadata>
  <g
     id="layer1"
     inkscape:groupmode="layer"
     inkscape:label="Layer 1">
    <g
       inkscape:export-ydpi="96"
       inkscape:export-xdpi="96"
       transform="matrix(1.0035614,0,0,1.0035614,-0.00509213,-0.00942286)"
       id="g1502">
      <path
         style="fill:#000000;stroke-width:0.587043"
         d="M 37.62018,101.80201 C 31.495231,99.643992 26.928878,95.839737 24.249278,90.662638 c -2.04349,-3.948107 -3.552825,-9.456059 -3.19059,-11.643287 0.166478,-1.005225 0.502314,-3.221799 0.746301,-4.925714 0.532043,-3.715591 2.192812,-6.834622 5.223796,-9.810622 2.558378,-2.511973 6.66651,-4.437996 8.699884,-4.078786 1.438426,0.254107 8.916966,-1.02785 8.325813,-1.427198 -0.185952,-0.125618 -1.574668,0.02099 -3.086037,0.325739 -1.511369,0.304774 -4.033578,0.473527 -5.60491,0.375011 l -2.856967,-0.179127 3.571209,-1.17284 c 2.355044,-0.773439 4.762118,-1.164797 7.068253,-1.149203 2.508321,0.01698 3.063651,-0.08466 1.964165,-0.359417 -1.594661,-0.398504 -2.056908,-1.585915 -0.818637,-2.102901 0.392833,-0.164011 0.714242,-1.045321 0.714242,-1.958467 0,-1.338597 -0.276759,-1.660263 -1.428484,-1.660263 -0.952322,0 -1.428484,-0.321665 -1.428484,-0.964995 0,-1.067905 1.104933,-1.307377 1.669697,-0.361873 0.19814,0.331717 0.385629,-0.08477 0.416642,-0.925532 0.03101,-0.84076 -0.138705,-1.872098 -0.37715,-2.291862 -0.648154,-1.141026 -3.574077,-0.92082 -5.430053,0.408667 -0.899772,0.644531 -2.600176,1.241621 -3.778675,1.326867 -1.685896,0.121948 -2.182172,0.412164 -2.327749,1.361236 -0.28694,1.870666 0.813178,2.559677 4.165652,2.608979 3.601393,0.05296 4.525873,1.02492 1.414019,1.486637 -2.967335,0.440269 -6.327857,-0.124692 -7.186192,-1.20813 -0.898301,-1.133883 -0.927074,-4.334978 -0.03896,-4.334978 0.368136,0 0.486501,-0.76112 0.263035,-1.691378 -0.36276,-1.510114 -0.05995,-1.94151 2.825467,-4.025376 1.777473,-1.283699 3.727458,-2.981539 4.333299,-3.772977 1.260584,-1.646759 6.472451,-4.981542 7.802801,-4.992576 0.648013,-0.0054 0.667208,-0.103987 0.07044,-0.361873 -0.451165,-0.194967 -1.050664,-1.602947 -1.332218,-3.128844 -0.508972,-2.758404 -0.501174,-2.77436 1.355985,-2.77436 1.027346,0 1.867902,-0.179519 1.867902,-0.398932 0,-0.219413 -0.894499,-0.310245 -1.987776,-0.201848 -1.9065,0.189025 -2.023315,0.08085 -2.856967,-2.64572 -1.052345,-3.441831 -1.125609,-6.721936 -0.159153,-7.125437 0.390521,-0.163044 1.806983,0.268765 3.147693,0.959575 1.34071,0.690812 3.672815,1.356178 5.182456,1.478593 2.930094,0.237597 2.602722,0.0079 -0.690062,-0.484079 -1.10351,-0.164892 -3.353371,-1.12518 -4.999693,-2.133974 -1.646322,-1.008794 -3.537785,-1.967015 -4.203251,-2.12938 -2.055331,-0.501473 -3.067426,-3.756604 -1.916501,-6.1639037 1.139212,-2.3827976 3.250381,-3.5888812 7.957103,-4.5457907 2.95209,-0.6001806 3.488053,-0.5941526 4.441525,0.049954 0.596376,0.4028738 1.084319,0.5767221 1.084319,0.3863294 0,-1.1593987 3.61751,2.592214 4.661412,4.8342125 l 1.256417,2.6984215 5.292455,-0.06922 c 4.618952,-0.06041 5.514902,0.07195 7.04047,1.040133 0.961409,0.610144 1.750091,1.342909 1.752627,1.628368 0.01004,1.129748 5.904165,5.078846 9.103866,6.09964 4.339565,1.384442 5.890601,2.297195 5.890601,3.466497 0,0.514995 0.705408,1.605579 1.567575,2.42352 0.862161,0.81794 1.951059,2.914134 2.419759,4.658207 0.795401,2.95972 0.857525,3.031708 0.932271,1.080222 0.09168,-2.393439 1.806617,-2.638531 1.952637,-0.279061 0.04785,0.772688 0.316059,1.772171 0.596085,2.221074 0.822285,1.318171 0.13307,2.550031 -1.515957,2.709531 -2.047489,0.19804 -2.746717,2.162564 -1.300442,3.653676 l 1.109525,1.143918 2.62711,-0.904799 c 3.022007,-1.040808 3.838102,-1.084559 7.481142,-0.401069 6.08082,1.140855 10.47736,5.715105 12.26963,12.765573 3.91421,15.397883 0.56178,24.001548 -9.75968,25.047144 -3.94313,0.399455 -6.11726,-0.150076 -9.419477,-2.380844 -2.267239,-1.531606 -2.757724,-1.674859 -3.816708,-1.114752 -1.092855,0.578022 -1.116825,0.557998 -0.238171,-0.198992 0.84924,-0.731654 0.685993,-1.225755 -1.248702,-3.779353 l -2.225671,-2.937656 0.297025,-9.248079 c 0.214751,-6.686399 0.60132,-9.816084 1.395578,-11.298687 0.604206,-1.127838 0.845334,-2.050614 0.535832,-2.050614 -1.665848,0 -2.451326,4.187893 -2.760114,14.715922 -0.190043,6.479451 -0.642123,11.498846 -1.086421,12.062432 -0.696764,0.883834 -0.654204,0.905739 0.50465,0.259709 1.126464,-0.62798 1.378356,-0.601457 2.291449,0.241249 1.272294,1.174215 1.011602,4.38123 -0.340729,4.191681 -0.520239,-0.07291 -0.741233,0.09112 -0.491091,0.364536 1.068163,1.167552 -7.047097,6.281758 -9.967945,6.281758 -0.793273,0 -0.306098,-3.750924 0.908678,-6.996211 0.999816,-2.671018 1.127548,-3.98302 0.610666,-6.272465 -0.743646,-3.293855 -0.787387,-3.359257 -1.928141,-2.882989 -0.530277,0.221394 -0.577092,0.460616 -0.127483,0.651439 0.820635,0.348291 1.616496,5.422676 1.071354,6.830922 -0.202125,0.522139 -0.688909,0.949347 -1.081742,0.949347 -0.392833,0 -0.546025,-0.434547 -0.340427,-0.96566 0.205598,-0.531114 0.08238,-0.843985 -0.273818,-0.695269 -0.866434,0.361738 -0.823847,1.831386 0.07058,2.435607 0.481452,0.325237 0.446577,1.398881 -0.105795,3.256925 -0.699557,2.353134 -1.039718,2.749872 -2.252307,2.626927 -0.785566,-0.07965 -2.372234,-0.934848 -3.52593,-1.900441 -1.62631,-1.361154 -2.185302,-2.408785 -2.487822,-4.66255 -0.382157,-2.847042 -0.499657,-2.98232 -5.704507,-6.567454 -2.922875,-2.013287 -5.383157,-3.660528 -5.467296,-3.660528 -0.52659,0 -0.149201,2.546292 0.689247,4.650439 3.06587,7.694018 3.816804,13.946092 2.389013,19.89029 -1.847066,7.689728 -9.350758,12.617561 -19.199339,12.608591 -1.795977,-0.001 -4.178376,-0.32464 -5.29422,-0.71779 z m 10.731771,-2.202948 c 2.904764,-0.738554 7.323393,-3.764424 8.765336,-6.002488 4.317355,-6.701034 2.238599,-19.87445 -4.369438,-27.68985 -0.919047,-1.086965 -1.875556,-1.977973 -2.125577,-1.980019 -0.250022,-0.0019 -0.673146,1.027623 -0.940277,2.288147 -0.267131,1.260524 -1.116732,4.08531 -1.888001,6.2773 -1.023646,2.90926 -1.203692,4.236143 -0.666768,4.913878 1.740271,2.196665 -0.369945,4.851857 -3.856013,4.851857 -3.99407,0 -5.26269,-3.036896 -2.147668,-5.141211 1.787637,-1.207614 1.834867,-1.409794 1.964165,-8.408143 0.109222,-5.911658 0.320606,-7.205696 1.203848,-7.369678 1.823556,-0.338559 -3.966167,-0.329859 -6.479675,0.0097 -2.908194,0.392917 -7.946247,3.766852 -10.260435,6.871302 -3.129955,4.198793 -4.002176,9.691702 -2.519215,15.865028 1.053796,4.386783 3.202479,7.901086 6.816606,11.148968 4.736449,4.256476 10.713079,5.837327 16.503112,4.365178 z M 43.926163,77.50774 c -0.518012,-0.349936 -1.646648,2.054372 -1.201523,2.559581 0.224447,0.254744 0.658194,-0.16859 0.963883,-0.94074 0.30569,-0.77215 0.412628,-1.500629 0.23764,-1.618841 z m 2.447146,-4.60728 c 0.466117,-1.298665 1.0442,-4.555522 1.28463,-7.237459 0.387447,-4.321873 0.314052,-4.807637 -0.645586,-4.272794 -0.793496,0.442248 -1.215188,2.100123 -1.578573,6.206136 -0.272712,3.081474 -0.683778,6.2839 -0.91348,7.116502 -0.66483,2.409814 0.879838,0.899014 1.853009,-1.812385 z m 63.900931,1.622971 c 3.45761,-2.050801 4.72726,-4.926437 4.72726,-10.706735 0,-10.401696 -5.38602,-20.395001 -11.59373,-21.511232 -2.54434,-0.457505 -5.669548,0.04752 -7.001087,1.131356 -0.968784,0.788563 0.299581,3.698474 4.008597,9.196606 1.5634,2.317531 2.86656,3.595155 3.89107,3.814817 1.44046,0.308847 3.55554,2.812284 3.55047,4.202392 -0.001,0.340243 -2.5725,2.955702 -5.71393,5.812129 -3.141424,2.856432 -5.71168,5.344203 -5.71168,5.528377 0,0.184174 1.190162,1.158235 2.644801,2.164574 2.243819,1.5523 3.106349,1.829707 5.689079,1.829707 2.37077,0 3.58961,-0.323451 5.50915,-1.461991 z m -8.93012,-7.946706 c 3.18398,-2.848794 3.57007,-3.404491 2.46651,-3.550027 -0.7196,-0.0949 -1.66029,-0.364951 -2.09043,-0.600116 -0.50415,-0.275631 -2.219743,0.471535 -4.82769,2.102536 l -4.04563,2.530104 1.426698,2.090714 c 1.65297,2.422291 1.373687,2.523934 7.070542,-2.573211 z m -28.490734,3.146133 c 0.416163,-0.525299 0.537804,-1.544155 0.270315,-2.264113 -0.471784,-1.269837 -0.503684,-1.277354 -1.065633,-0.25115 -0.31861,0.581829 -0.892087,1.057871 -1.274395,1.057871 -1.426957,0 -1.428472,-0.890835 -0.0036,-2.114526 1.950174,-1.674825 1.055702,-1.624877 -1.144623,0.06391 -2.14065,1.64299 -2.161006,1.95132 -0.22093,3.346384 1.897438,1.364406 2.464851,1.391074 3.438863,0.161622 z m 5.800969,-3.027907 c 1.849288,-1.074212 1.859786,-1.119335 1.262373,-5.425696 -0.331333,-2.388362 -1.362716,-6.730838 -2.291961,-9.649946 l -1.689537,-5.30747 1.855649,-0.58136 1.855648,-0.581359 -1.872039,-0.02176 c -1.840703,-0.0214 -1.880456,-0.09445 -2.374906,-4.364238 -0.276577,-2.388362 -0.744121,-4.342476 -1.038986,-4.342476 -0.294866,0 -1.305801,0.55346 -2.246523,1.229912 -0.940722,0.676452 -3.363666,1.971228 -5.384319,2.877282 -2.020653,0.906054 -4.692762,2.431266 -5.938019,3.389361 l -2.264104,1.74199 1.988547,1.618357 c 1.0937,0.890097 2.204153,1.634033 2.467674,1.653193 0.263521,0.01916 3.075848,-0.704986 6.249616,-1.609211 5.755316,-1.639722 5.770488,-1.641172 5.770488,-0.551216 0,0.921161 -1.009771,1.37557 -6.428177,2.892758 -3.535497,0.989961 -6.428176,1.897596 -6.428176,2.016971 0,0.119374 0.873738,0.154544 1.941641,0.07815 1.793505,-0.128292 2.06918,0.100388 3.613335,2.997345 1.126712,2.113802 2.589348,3.731934 4.486535,4.963513 3.102826,2.014223 3.339691,2.529926 1.718009,3.740449 -1.006659,0.751432 -0.953136,0.800188 0.651019,0.593033 2.100848,-0.271299 4.081746,1.495268 2.218337,1.978316 -1.070429,0.277489 -1.511472,1.754143 -0.5226,1.749718 0.294624,-0.0014 1.374839,-0.489845 2.400476,-1.085619 z M 65.00457,61.160886 c 0,-0.396729 -1.639236,-1.932961 -3.642747,-3.413847 -3.336279,-2.465995 -3.537509,-2.744503 -2.391865,-3.310414 1.055328,-0.521295 0.687547,-0.572821 -2.352536,-0.329589 -3.328372,0.26629 -3.697675,0.191117 -4.83829,-0.984854 -0.919596,-0.948107 -1.152592,-1.943413 -0.912599,-3.898421 0.17725,-1.443895 0.07824,-2.523379 -0.220031,-2.39885 -1.007156,0.420493 -1.547138,-0.858157 -0.553954,-1.311737 0.712339,-0.325321 0.490937,-0.410403 -0.801298,-0.307929 -2.119096,0.168045 -2.502711,1.256388 -1.793826,5.089205 0.361589,1.955044 0.731498,2.53943 1.483964,2.344366 1.208747,-0.313339 2.82103,1.423449 1.740277,1.874671 -1.738498,0.72583 -0.285923,2.298385 5.797668,6.276537 l 6.51384,4.259496 0.985699,-1.583658 c 0.542134,-0.871009 0.985698,-1.908248 0.985698,-2.304976 z m 34.99785,-1.711838 c 0,-0.940175 -0.281441,-1.276364 -0.892803,-1.066493 -0.491042,0.168566 -0.13972,-0.141188 0.780716,-0.688349 l 1.673507,-0.994833 -3.459112,-5.311803 c -1.902518,-2.921492 -3.656511,-5.312969 -3.897767,-5.314392 -0.241257,-0.0014 -1.044779,1.02875 -1.785605,2.289274 -1.009002,1.716824 -1.34696,3.522689 -1.34696,7.197427 0,2.698062 0.213173,5.049493 0.473714,5.225402 0.260541,0.175904 1.385472,-0.04613 2.499846,-0.493368 1.869978,-0.750524 1.91604,-0.750949 0.597649,-0.0055 -0.785666,0.44422 -1.844872,0.969814 -2.353784,1.167981 -0.6978,0.271718 -0.744075,0.682309 -0.188231,1.669937 l 0.737076,1.309633 3.580873,-1.805963 c 2.833083,-1.428834 3.580881,-2.092697 3.580881,-3.178953 z M 47.643488,58.745326 c -0.181092,-0.469456 -0.341167,-0.202181 -0.355722,0.59394 -0.01456,0.79612 0.133609,1.180217 0.329257,0.853552 0.195647,-0.326665 0.207556,-0.978037 0.02646,-1.447492 z m 7.859441,-11.54576 c 0.602266,-0.620937 0.788246,-1.128976 0.413289,-1.128976 -1.010013,0 -2.355196,2.266811 -2.2325,3.762057 l 0.107016,1.304165 0.308583,-1.404136 c 0.169721,-0.772274 0.801347,-1.912174 1.403612,-2.53311 z M 32.187221,46.287585 c -0.346078,-0.782781 -0.656859,-1.06103 -0.690624,-0.61833 -0.06853,0.898549 0.693828,2.464474 1.07459,2.207255 0.134897,-0.09113 -0.03789,-0.806144 -0.383966,-1.588925 z m 1.805544,-1.062586 c -0.824051,-0.556678 -1.246812,0.315156 -0.684863,1.412351 l 0.574643,1.12198 0.262527,-1.127048 c 0.144389,-0.619876 0.07585,-1.253154 -0.152307,-1.407283 z m 1.508613,0.0104 c -0.181092,-0.469454 -0.341167,-0.202181 -0.355723,0.593939 -0.01456,0.796121 0.13361,1.180219 0.329257,0.853553 0.195647,-0.326666 0.207557,-0.978038 0.02646,-1.447492 z m 21.189597,-5.271674 c 2.062623,-1.285263 5.259095,-3.161863 7.103272,-4.170222 3.256822,-1.780763 3.353049,-1.909292 3.353049,-4.478647 0,-2.292282 0.214444,-2.703497 1.607044,-3.081634 l 1.607044,-0.436365 -1.607044,-0.03058 c -0.883875,-0.01682 -1.639419,-0.301987 -1.67899,-0.633704 -0.493219,-4.134682 -0.743607,-5.413107 -1.104791,-5.64081 -0.235363,-0.14838 -0.202137,2.358871 0.07383,5.571669 l 0.501767,5.841452 -3.780027,2.361003 C 60.687115,36.564438 57.177462,38.766789 54.9669,40.16 c -2.741612,1.727907 -4.617408,2.533111 -5.901113,2.533111 -1.755547,0 -1.83241,-0.08909 -1.144706,-1.326868 0.405461,-0.729777 2.224829,-2.352241 4.043038,-3.605476 2.684652,-1.850446 3.650036,-2.230594 5.137614,-2.023083 1.808586,0.25229 1.811841,0.247473 0.257067,-0.380413 l -1.574711,-0.635939 1.931832,-2.041563 c 1.062507,-1.12286 2.735354,-2.243239 3.717436,-2.489732 1.232891,-0.309444 1.398705,-0.459961 0.535682,-0.486262 -0.938696,-0.02861 -1.249924,-0.453761 -1.249924,-1.707463 0,-1.533542 -0.235833,-1.717105 -2.898411,-2.256 -1.595303,-0.322883 -4.164254,-1.441751 -5.713934,-2.488619 -2.951295,-1.993711 -3.989404,-1.970129 -1.208479,0.02745 1.414942,1.016374 1.636325,1.759334 1.851995,6.215288 l 0.244951,5.060922 -4.26467,2.742009 c -2.345568,1.508105 -6.151998,3.894657 -8.458732,5.303449 -3.274899,2.000079 -3.750463,2.448731 -2.169961,2.047162 1.113256,-0.282853 2.318539,-0.391349 2.678407,-0.241102 0.359868,0.150247 0.654306,0.04324 0.654306,-0.237797 0,-0.281035 0.578535,-0.510973 1.285635,-0.510973 0.707099,0 1.590973,-0.184659 1.964165,-0.410354 0.373191,-0.225695 2.0175,-0.313191 3.654019,-0.194437 2.471819,0.179368 3.071853,0.432597 3.54476,1.495973 0.546235,1.228261 0.579148,1.208664 0.813425,-0.484329 0.1948,-1.407711 1.002272,-2.236782 3.99438,-4.101227 z M 92.145759,43.6581 c 0,-0.265373 -0.141734,-0.482497 -0.314966,-0.482497 -0.173233,0 -0.513612,0.217124 -0.756397,0.482497 -0.242785,0.265374 -0.101051,0.482498 0.314967,0.482498 0.416017,0 0.756396,-0.217124 0.756396,-0.482498 z m 2.57127,-8.974449 c -0.345728,-0.608626 -0.68965,-0.692111 -1.261044,-0.306114 -0.432116,0.291911 -0.571743,0.907335 -0.310288,1.367608 0.345729,0.608625 0.689651,0.692111 1.261044,0.306113 0.432117,-0.291911 0.571744,-0.907334 0.310288,-1.367607 z M 83.217736,85.764832 c -1.356053,-0.228873 -2.465035,-0.964025 -2.488909,-1.649919 -0.006,-0.172821 1.076545,-0.747663 2.405691,-1.277426 1.784915,-0.711428 3.045171,-0.876876 4.821132,-0.632916 3.232546,0.444043 3.578361,1.931823 0.714635,3.074594 -2.131384,0.850527 -2.890248,0.91812 -5.452549,0.485667 z m 0,-1.094458 C 82.974952,84.405 82.454902,84.187876 82.062069,84.187876 c -0.392833,0 -0.515601,0.217124 -0.272816,0.482498 0.242784,0.265373 0.762834,0.482497 1.155667,0.482497 0.392833,0 0.515601,-0.217124 0.272816,-0.482497 z M 157.90143,70.120489 c -2.29437,-1.443984 -3.97557,-4.282429 -5.38543,-9.092483 -0.66115,-2.255675 -1.42571,-4.850125 -1.69902,-5.765442 l -0.49693,-1.66421 -1.50912,1.09427 c -0.83002,0.601852 -1.36271,1.472499 -1.18377,1.934775 0.2126,0.549203 -0.79965,1.541039 -2.92072,2.861803 -4.905,3.054294 -9.31444,2.569872 -5.78326,-0.635348 2.52283,-2.289947 4.27862,-9.389143 2.50526,-10.129529 -0.44476,-0.185692 -0.7411,0.850301 -0.78543,2.745882 -0.0391,1.674247 -0.28581,3.561434 -0.54811,4.193746 -0.42624,1.027498 -0.57729,1.06796 -1.4215,0.380797 -1.57986,-1.285966 -1.87151,-4.484393 -0.5346,-5.86275 0.64891,-0.669035 0.87841,-1.216426 0.50997,-1.216426 -0.36843,0 -1.87797,-1.1399 -3.35454,-2.533111 -3.47715,-3.280868 -4.07682,-3.726055 -3.41209,-2.533111 0.29574,0.530747 1.60041,1.967983 2.89928,3.193857 2.73948,2.585532 2.81874,2.890807 1.03381,3.982026 -0.99579,0.608777 -1.42256,1.746066 -1.70692,4.548618 -0.47675,4.698829 -2.85632,10.179159 -5.14379,11.846534 -2.43158,1.77242 -5.37401,1.698077 -8.19415,-0.20703 -1.53353,-1.03596 -2.19659,-1.947277 -2.19411,-3.015608 l 0.004,-1.531002 1.75637,1.447492 c 0.966,0.79612 1.76793,1.595705 1.78206,1.776849 0.0496,0.635685 2.84283,0.925237 4.19826,0.435193 0.75327,-0.272331 1.85215,-1.315698 2.44196,-2.318592 0.99138,-1.685711 1.37559,-3.132788 2.31984,-8.737452 l 0.35195,-2.089035 -2.25055,0.333917 c -1.99943,0.296664 -2.19058,0.233654 -1.71314,-0.564695 0.29558,-0.494242 0.89465,-1.549989 1.33126,-2.34611 l 0.79386,-1.447492 0.53503,1.447492 c 0.34904,0.94431 0.43378,0.441128 0.24378,-1.447492 -0.31047,-3.086089 -1.64553,-6.777809 -2.29293,-6.340462 -0.45607,0.308085 -1.75564,7.766008 -1.90359,10.924187 -0.0872,1.861132 -0.33187,2.193317 -1.71319,2.32581 -2.08092,0.199605 -3.03473,-1.423164 -2.20531,-3.752034 0.33497,-0.940503 0.40562,-3.608279 0.15702,-5.928386 -0.34625,-3.231374 -0.22166,-4.405974 0.53251,-5.020157 0.9136,-0.744019 0.82961,-0.747677 -1.16588,-0.05078 -2.47589,0.864665 -5.34916,4.010674 -5.34916,5.856899 0,1.602599 -0.95753,1.619461 -2.02575,0.03568 -0.65066,-0.964702 -0.60682,-1.58078 0.20603,-2.894984 0.56792,-0.918218 1.40478,-1.669486 1.85969,-1.669486 0.45491,0 0.64792,-0.31543 0.42893,-0.700956 -0.38848,-0.683884 3.2044,-3.159023 4.5856,-3.159023 0.36269,0 0.65943,-0.325685 0.65943,-0.723746 0,-0.518896 -0.78388,-0.723746 -2.76951,-0.723746 -3.06007,0 -4.11185,-0.597711 -5.08489,-2.889666 -0.70793,-1.667507 -0.30447,-2.392341 2.96205,-5.321473 1.04112,-0.933585 2.64816,-2.779137 3.57121,-4.101228 0.92305,-1.32209 1.99967,-2.583173 2.39251,-2.802406 0.47102,-0.262868 0.45067,-0.472832 -0.0598,-0.616576 -0.67149,-0.189103 -0.62588,-4.465632 0.0526,-4.92907 0.12423,-0.08486 1.52985,0.295111 3.1236,0.844371 1.59374,0.549259 3.9551,0.976429 5.24746,0.949265 l 2.34978,-0.04939 -2.49239,-0.395811 c -5.01996,-0.797204 -9.22842,-2.5495 -10.03835,-4.179709 -1.66333,-3.347927 1.33596,-6.9293489 6.3316,-7.5604983 2.62743,-0.3319486 6.55627,0.7403418 6.55627,1.7893887 0,0.344987 0.74913,1.1026762 1.66474,1.6837535 1.59338,1.0112131 1.79625,1.0251611 4.73237,0.3253551 5.45331,-1.2997618 6.90105,-1.0451214 8.57275,1.507849 1.12506,1.718159 1.2755,2.394149 0.64672,2.905965 -0.87383,0.711275 -0.57657,4.888383 0.85282,11.98369 0.96819,4.805989 0.96022,4.629464 0.26175,5.789968 -0.53756,0.893188 -0.49332,0.906463 0.59466,0.178402 1.02657,-0.686963 1.08917,-1.349963 0.49425,-5.23453 -0.37467,-2.446366 -0.84649,-4.628601 -1.0485,-4.849411 -0.20202,-0.22081 -0.0214,-0.545882 0.40133,-0.722382 0.49935,-0.208485 0.34396,-0.530681 -0.44357,-0.919694 -0.97159,-0.479929 -1.14563,-1.141042 -0.87685,-3.330603 0.18445,-1.5025 0.55127,-2.877674 0.81516,-3.055943 0.26389,-0.178269 1.22242,0.147166 2.13006,0.723188 0.90764,0.576023 1.89349,1.047313 2.19077,1.047313 0.29728,0 -0.57541,-0.710959 -1.93929,-1.57991 -1.51493,-0.965184 -2.80813,-2.403633 -3.32366,-3.696962 -1.17792,-2.9551202 -0.0953,-4.1757264 4.52585,-5.102794 3.19252,-0.6404615 3.75172,-0.637053 5.26345,0.032083 0.93028,0.4117719 2.03253,1.334283 2.44944,2.0500245 1.43635,2.4659135 1.81866,2.7255575 4.58479,3.1138015 3.68806,0.517642 6.4174,2.376159 7.41333,5.048047 0.48155,1.291913 1.73614,2.799735 3.07253,3.692707 2.63253,1.759053 3.06733,3.169764 4.2573,13.812906 1.64072,14.674717 0.95699,20.8193 -2.82665,25.402933 -2.56979,3.113154 -7.06852,3.46021 -6.42443,0.495616 0.23472,-1.08036 -0.0619,-1.700412 -1.07991,-2.257272 -1.0084,-0.55161 -1.54093,-1.644346 -1.89158,-3.881435 -0.3914,-2.497109 -2.25794,-5.76742 -3.29177,-5.76742 -0.1093,0 0.008,1.899833 0.26071,4.221851 1.12144,10.305351 0.20208,15.986409 -2.96714,18.334897 -1.83689,1.361193 -3.34569,1.37382 -5.45603,0.04564 z m 5.34784,-2.563272 c 0.67575,-1.092566 1.03523,-3.394928 1.03583,-6.634337 0.001,-8.650916 -2.64841,-18.299598 -3.0124,-10.968187 -0.20569,4.143007 -0.37536,6.839399 -0.47668,7.575208 -0.11997,0.871264 -2.70794,0.742631 -3.22072,-0.160088 -0.23845,-0.419763 -0.43354,-2.603816 -0.43354,-4.853445 0,-3.138617 -0.20771,-4.008193 -0.8928,-3.73758 -0.49104,0.193964 -0.2947,-0.108322 0.43631,-0.671748 1.08324,-0.834907 1.21316,-1.35561 0.70233,-2.814787 -0.60213,-1.719959 -0.67704,-1.756427 -1.90451,-0.927226 -0.94392,0.637653 -1.26122,1.571932 -1.21458,3.576218 0.0347,1.492188 0.0631,4.088293 0.0632,5.76912 1.1e-4,6.363913 3.81656,15.520095 6.46905,15.520095 0.93794,0 1.76185,-0.563026 2.44852,-1.673243 z m -3.97572,-10.992311 c -0.009,-0.847608 -0.15479,-0.931992 -0.66711,-0.384912 -0.3609,0.38539 -0.49771,0.873918 -0.30403,1.085619 0.61951,0.677151 0.98239,0.415324 0.97114,-0.700707 z m 15.44727,-3.601751 0.20182,-2.791338 -0.5979,2.52899 c -0.32884,1.390943 -0.81309,2.91081 -1.0761,3.377481 -0.37614,0.667429 -0.29163,0.723413 0.39608,0.262349 0.48085,-0.322376 0.96509,-1.842243 1.0761,-3.377482 z m -50.26893,1.517348 c -0.2346,-0.829017 -0.58831,-1.07966 -1.06716,-0.756179 -0.79338,0.535958 -0.22248,1.996212 0.78045,1.996212 0.35069,0 0.4797,-0.558018 0.28671,-1.240033 z m 35.95102,-6.470846 c 0.28723,-4.385238 0.17029,-5.316548 -0.6676,-5.316548 -0.82234,0 -1.02606,1.171709 -1.06958,6.15184 -0.067,7.665102 1.22096,7.045817 1.73718,-0.835292 z m 20.7869,-3.317046 c 0.2038,-2.748189 0.0871,-5.188216 -0.25943,-5.422283 -0.36381,-0.24577 -0.62263,1.457635 -0.61258,4.031713 0.01,2.45151 -0.20601,5.868594 -0.47908,7.593522 -0.44652,2.820549 -0.42215,2.91768 0.24202,0.964994 0.40617,-1.19418 0.90526,-4.419756 1.10907,-7.167946 z m -30.35329,4.3925 c 0.1288,-1.924556 -0.0462,-3.498703 -0.38895,-3.498105 -1.32862,0.0023 1.24054,-1.450096 2.67475,-1.512113 1.45545,-0.06293 1.45176,-0.07453 -0.0874,-0.274807 -0.88387,-0.115004 -1.60704,-0.394463 -1.60704,-0.621018 0,-0.857663 3.68069,-3.322277 4.60406,-3.082912 0.53096,0.137639 1.17756,0.01833 1.4369,-0.265137 0.25934,-0.283465 0.0508,-0.543101 -0.46343,-0.576969 -0.51423,-0.03387 -1.68438,-0.113635 -2.60034,-0.177261 -2.56,-0.177827 -4.01609,-1.478747 -4.01609,-3.588109 0,-1.036434 -0.24836,-1.780733 -0.55191,-1.653999 -0.68738,0.286983 -0.6338,2.512673 0.0906,3.762596 0.3202,0.552522 0.13626,1.484936 -0.44941,2.278018 -0.56148,0.760335 -0.9164,2.447243 -0.81835,3.889588 0.0952,1.400826 -0.0588,3.211809 -0.3423,4.024407 -0.33758,0.967623 -0.15585,1.945696 0.52666,2.834393 0.57317,0.746319 0.85954,1.709891 0.63639,2.141277 -0.2805,0.542259 -0.17,0.63542 0.35801,0.301841 0.42005,-0.265374 0.86912,-2.057132 0.99793,-3.98169 z m -26.79109,1.20733 c -0.19814,-0.331717 -0.36026,-0.06031 -0.36026,0.603122 0,0.663434 0.16212,0.934838 0.36026,0.603121 0.19813,-0.331716 0.19813,-0.874526 0,-1.206243 z m 49.97984,-4.101227 c -0.80244,-6.471316 -1.28189,-8.930611 -1.94355,-9.969399 -0.42666,-0.669838 -0.51162,-0.03733 -0.25355,1.887569 0.80587,6.010794 1.93104,11.821184 2.28916,11.821184 0.20439,0 0.16297,-1.682709 -0.0921,-3.739354 z m -48.87134,-2.412786 c 0.11224,-1.393376 -0.037,-2.533276 -0.33161,-2.533111 -0.29462,1.65e-4 -0.48753,1.683009 -0.42866,3.739654 0.10892,3.80588 0.39279,3.355375 0.76027,-1.206543 z m 46.01073,-0.208972 c -0.26217,-2.702491 -0.62386,-5.013049 -0.80375,-5.134574 -0.17989,-0.121524 -0.92005,0.273733 -1.64478,0.878348 l -1.3177,1.099301 -1.55713,-1.337267 c -1.67003,-1.434235 -2.01532,-3.587186 -0.81775,-5.098826 0.65551,-0.827419 0.49348,-0.933275 -1.42848,-0.933275 -1.58547,0 -2.16997,0.226837 -2.17572,0.84437 -0.004,0.464404 -0.21844,1.712865 -0.47581,2.77436 -0.42217,1.741134 -0.35457,1.866907 0.69081,1.285329 1.4002,-0.778974 2.91434,-0.275674 2.31973,0.771081 -0.28388,0.499753 0.70034,1.44219 2.92989,2.805484 3.33771,2.040901 3.3503,2.060231 2.14793,3.299865 -1.12313,1.157954 -1.12595,1.333017 -0.0395,2.453181 2.19935,2.267536 2.67336,1.458524 2.17222,-3.707377 z m -29.36045,1.843626 c 0.26322,-1.423124 0.3667,-3.852653 0.22996,-5.398955 -0.23426,-2.649232 -0.14558,-2.831243 1.537,-3.154374 1.69786,-0.326067 1.70663,-0.345282 0.17856,-0.391014 -1.30181,-0.03896 -1.60704,-0.329196 -1.60704,-1.528102 0,-1.652122 -0.11139,-1.650918 -6.42818,0.06951 -2.07228,0.5644 -2.67417,0.884727 -1.69427,0.901692 0.8359,0.01447 2.67367,-0.299375 4.08395,-0.697435 3.11424,-0.879017 3.32425,-0.886172 3.32425,-0.113252 0,0.335772 -1.63284,1.002263 -3.62854,1.48109 -2.88696,0.692667 -3.52868,1.036295 -3.13995,1.681367 0.26873,0.445925 0.71384,2.0374 0.98914,3.536611 0.47779,2.601887 3.40867,6.200362 5.05006,6.200362 0.34458,0 0.84186,-1.164374 1.10506,-2.587497 z m 22.73196,-3.13674 c -1.06382,-1.097646 -2.21398,-1.99572 -2.5559,-1.99572 -0.34193,0 0.38896,0.992316 1.6242,2.205146 2.77617,2.725808 3.59754,2.541182 0.9317,-0.209426 z m -7.39441,0.416767 c 0,-0.265374 -0.14173,-0.482498 -0.31496,-0.482498 -0.17324,0 -0.51361,0.217124 -0.7564,0.482498 -0.24278,0.265373 -0.10105,0.482497 0.31497,0.482497 0.41601,0 0.75639,-0.217124 0.75639,-0.482497 z m -25.93813,-4.655596 c -0.25494,-0.172216 -1.19238,-0.561535 -2.08321,-0.865154 -1.17977,-0.402096 -1.61781,-0.972303 -1.61278,-2.099366 0.004,-0.851033 -0.23727,-1.547333 -0.53569,-1.547333 -0.29842,0 -0.54258,0.747621 -0.54258,1.661381 0,1.169856 0.46964,1.883598 1.58741,2.412487 1.5264,0.722243 4.13919,1.081332 3.18685,0.437985 z m -7.46222,-4.070018 c 0.33576,-2.164712 0.30333,-2.207051 -1.52001,-1.984574 -2.1441,0.261615 -3.97112,1.396159 -4.68081,2.906699 -0.44287,0.942615 -0.23526,1.048527 2.05535,1.048527 1.5056,0 2.54797,0.236867 2.54797,0.578996 0,1.490718 1.29022,-0.568498 1.5975,-2.549648 z m 45.82593,-2.098179 c 0.22849,-1.344685 0.47388,-3.693345 0.54533,-5.219242 0.0714,-1.525898 0.41527,-2.77436 0.76406,-2.77436 0.3488,0 0.37415,-0.271405 0.0564,-0.603121 -0.31781,-0.331717 -0.9278,-1.363055 -1.35553,-2.291863 -0.62419,-1.355411 -0.7083,-0.593535 -0.42608,3.859882 0.30966,4.886579 0.22417,5.477172 -0.71651,4.949784 -0.58746,-0.329362 -1.25569,-0.47213 -1.48494,-0.317263 -0.22925,0.154867 -1.64602,0.577701 -3.14837,0.939631 l -2.73155,0.658053 3.74977,0.02118 c 3.41672,0.01929 3.74977,0.118778 3.74977,1.120063 0,0.604386 -0.5179,1.598381 -1.15089,2.208877 -1.10955,1.070122 -1.0991,1.08814 0.29114,0.501628 1.01889,-0.429851 1.56393,-1.32577 1.85746,-3.053247 z m -36.90948,-0.513755 c 0.59541,-0.796747 1.92849,-2.204502 2.9624,-3.128344 1.95678,-1.748449 4.58934,-5.818212 4.01467,-6.206416 -0.3363,-0.227185 -2.49194,2.944937 -2.49194,3.667007 0,0.217578 -0.88387,1.108225 -1.96416,1.979216 -1.80763,1.457408 -2.24879,1.571319 -5.53538,1.429266 l -3.57121,-0.154354 4.01678,-1.78525 c 5.3065,-2.358465 6.46662,-4.420297 3.32384,-5.907347 -2.5387,-1.201225 -3.89233,-0.945308 -4.32145,0.81701 -0.21,0.862464 -1.51227,2.915611 -2.89392,4.562549 l -2.51209,2.994433 4.61398,0.1418 4.61397,0.141799 -2.25942,2.412487 c -1.7801,1.900687 -1.92203,2.208008 -0.66903,1.448631 0.87472,-0.530121 2.07756,-1.61574 2.67296,-2.412487 z m 25.14974,-7.479847 c -0.002,-1.06509 -0.63601,-2.211909 -1.71714,-3.105394 l -1.71416,-1.416654 0.29403,3.494386 c 0.16171,1.921913 0.49339,3.7123 0.73705,3.978638 0.76784,0.83928 2.40336,-1.171518 2.40022,-2.950976 z m -13.07366,37.294455 c -0.6158,-0.415995 2.40159,-2.554649 3.6043,-2.554649 0.52078,0 0.94686,0.20234 0.94686,0.449644 0,0.635328 -3.9929,2.48213 -4.55116,2.105005 z m 34.54932,-1.084456 c 0,-0.80495 1.63459,-2.917685 2.25737,-2.917685 0.8272,0 0.75179,1.318834 -0.13977,2.444206 -0.76948,0.971262 -2.1176,1.272697 -2.1176,0.473479 z"
         id="path1493" />
      <text
         inkscape:export-ydpi="96"
         inkscape:export-xdpi="96"
         transform="matrix(3.530111,0,0,3.530111,-2.8170073,15.321663)"
         style="font-style:normal;font-weight:normal;font-size:10.5833px;line-height:1.25;font-family:sans-serif;white-space:pre;shape-inside:url(#rect14);fill:#ffffff;fill-opacity:1;stroke:#000000;stroke-width:0.329847;stroke-miterlimit:4;stroke-dasharray:none;stroke-opacity:1;"
         id="use867"
         xml:space="preserve"><tspan
           x="0"
           y="11.439581"><tspan
             style="font-style:italic;font-variant:normal;font-weight:bold;font-stretch:normal;font-size:12.7px;font-family:Arial;-inkscape-font-specification:'Arial, Bold Italic';font-variant-ligatures:normal;font-variant-caps:normal;font-variant-numeric:normal;font-variant-east-asian:normal;fill:#ffffff;fill-opacity:1;stroke:#000000;stroke-width:0.329847;stroke-miterlimit:4;stroke-dasharray:none;stroke-opacity:1">Cyclistics</tspan></tspan></text>
      <text
         inkscape:export-ydpi="96"
         inkscape:export-xdpi="96"
         id="text848"
         y="56.01775"
         x="-2.6168621"
         style="font-style:normal;font-variant:normal;font-weight:normal;font-stretch:normal;font-size:44.8324px;line-height:1.25;font-family:Arial;-inkscape-font-specification:Arial;fill:url(#linearGradient862);fill-opacity:1;stroke:none;stroke-width:0.934007"
         xml:space="preserve"><tspan
           style="font-style:italic;font-variant:normal;font-weight:bold;font-stretch:normal;font-size:44.8324px;font-family:Arial;-inkscape-font-specification:'Arial, Bold Italic';font-variant-ligatures:normal;font-variant-caps:normal;font-variant-numeric:normal;font-variant-east-asian:normal;fill:url(#linearGradient862);fill-opacity:1;stroke:#000000;stroke-width:0.934007;stroke-opacity:1"
           y="56.01775"
           x="-2.6168621"
           id="tspan846"
           sodipodi:role="line">Cyclistics</tspan></text>
      <rect
         style="fill:#ffffff;stroke:#ffffff;stroke-width:1.1644;stroke-opacity:1"
         id="rect1475"
         width="14.010128"
         height="4.6700425"
         x="15.062585"
         y="2.645833" />
    </g>
  </g>
</svg>
